<svg width="23" height="23" viewBox="0 0 23 23" fill="none" xmlns="http://www.w3.org/2000/svg">
<g opacity="0.45">
<path fill-rule="evenodd" clip-rule="evenodd" d="M17.8162 8.37745C17.8162 9.57357 18.1324 10.2786 18.8281 11.091C19.3553 11.6896 19.5238 12.4579 19.5238 13.2914C19.5238 14.124 19.2502 14.9144 18.7022 15.5561C17.9847 16.3254 16.9729 16.8165 15.9402 16.9019C14.4437 17.0295 12.9463 17.1369 11.429 17.1369C9.91078 17.1369 8.41431 17.0726 6.91784 16.9019C5.88422 16.8165 4.87238 16.3254 4.15585 15.5561C3.60781 14.9144 3.33331 14.124 3.33331 13.2914C3.33331 12.4579 3.50274 11.6896 4.02902 11.091C4.74649 10.2786 5.04181 9.57357 5.04181 8.37745V7.97171C5.04181 6.36984 5.44125 5.32239 6.26378 4.297C7.48671 2.80161 9.44698 1.90475 11.3864 1.90475H11.4716C13.4527 1.90475 15.4764 2.84477 16.6785 4.40444C17.4585 5.40872 17.8162 6.41205 17.8162 7.97171V8.37745ZM8.64157 19.1056C8.64157 18.6259 9.08171 18.4063 9.48872 18.3123C9.96483 18.2116 12.866 18.2116 13.3421 18.3123C13.7491 18.4063 14.1892 18.6259 14.1892 19.1056C14.1656 19.5621 13.8977 19.9669 13.5276 20.224C13.0477 20.5981 12.4845 20.835 11.8958 20.9204C11.5702 20.9626 11.2502 20.9635 10.936 20.9204C10.3463 20.835 9.7831 20.5981 9.30415 20.223C8.93311 19.9669 8.66524 19.5621 8.64157 19.1056Z" fill="#616161"/>
</g>
<circle cx="14.8571" cy="2.28571" r="2.28571" fill="#616161"/>
</svg>
