<svg width="20" height="20" viewBox="0 0 20 20" fill="none" xmlns="http://www.w3.org/2000/svg">
<path fill-rule="evenodd" clip-rule="evenodd" d="M1.66669 10.0125C1.66669 5.62261 5.17502 1.66667 10.0167 1.66667C14.75 1.66667 18.3334 5.54749 18.3334 9.98749C18.3334 15.1369 14.1334 18.3333 10 18.3333C8.63335 18.3333 7.11669 17.9661 5.90002 17.2484C5.47502 16.9897 5.11669 16.7977 4.65835 16.9479L2.97502 17.4487C2.55002 17.5822 2.16669 17.2484 2.29169 16.7977L2.85002 14.9282C2.94169 14.6695 2.92502 14.3941 2.79169 14.1771C2.07502 12.8585 1.66669 11.4146 1.66669 10.0125ZM8.91668 10.0125C8.91668 10.6051 9.39168 11.0808 9.98335 11.0891C10.575 11.0891 11.05 10.6051 11.05 10.0209C11.05 9.42832 10.575 8.9526 9.98335 8.9526C9.40001 8.94426 8.91668 9.42832 8.91668 10.0125ZM12.7584 10.0209C12.7584 10.6051 13.2334 11.0891 13.825 11.0891C14.4167 11.0891 14.8917 10.6051 14.8917 10.0209C14.8917 9.42832 14.4167 8.9526 13.825 8.9526C13.2334 8.9526 12.7584 9.42832 12.7584 10.0209ZM6.14167 11.0891C5.55834 11.0891 5.075 10.6051 5.075 10.0209C5.075 9.42832 5.55 8.9526 6.14167 8.9526C6.73334 8.9526 7.20834 9.42832 7.20834 10.0209C7.20834 10.6051 6.73334 11.0808 6.14167 11.0891Z" fill="#B6B9BC"/>
</svg>
