<svg width="12" height="13" viewBox="0 0 12 13" fill="none" xmlns="http://www.w3.org/2000/svg">
<path d="M5.67204 1.38127C2.93118 1.38127 0.708801 3.60365 0.708801 6.34451C0.708801 9.08536 2.93118 11.3077 5.67204 11.3077C8.41289 11.3077 10.6353 9.08536 10.6353 6.34451C10.6353 3.60365 8.41289 1.38127 5.67204 1.38127ZM5.67204 10.4658C3.39648 10.4658 1.55078 8.62006 1.55078 6.34451C1.55078 4.06895 3.39648 2.22325 5.67204 2.22325C7.94759 2.22325 9.79329 4.06895 9.79329 6.34451C9.79329 8.62006 7.94759 10.4658 5.67204 10.4658Z" fill="white"/>
<path d="M7.60746 7.74706L6.02765 6.60486V3.86289C6.02765 3.81414 5.98776 3.77426 5.93902 3.77426H5.40613C5.35739 3.77426 5.3175 3.81414 5.3175 3.86289V6.91395C5.3175 6.94276 5.3308 6.96934 5.35406 6.98596L7.18647 8.32205C7.22636 8.35085 7.28175 8.34199 7.31055 8.30321L7.6274 7.87115C7.65621 7.83015 7.64735 7.77476 7.60746 7.74706Z" fill="white"/>
</svg>
