<svg width="20" height="20" viewBox="0 0 20 20" fill="none" xmlns="http://www.w3.org/2000/svg">
<path fill-rule="evenodd" clip-rule="evenodd" d="M13.2082 2.08391C13.734 2.08391 14.259 2.15808 14.7582 2.32558C17.834 3.32558 18.9423 6.70058 18.0165 9.65057C17.4915 11.1581 16.6332 12.5339 15.509 13.6581C13.8998 15.2164 12.134 16.5997 10.2332 17.7914L10.0248 17.9172L9.80818 17.7831C7.90068 16.5997 6.12485 15.2164 4.50068 13.6497C3.38402 12.5256 2.52485 11.1581 1.99152 9.65057C1.04985 6.70058 2.15818 3.32558 5.26735 2.30808C5.50902 2.22474 5.75818 2.16641 6.00818 2.13391H6.10818C6.34235 2.09974 6.57485 2.08391 6.80818 2.08391H6.89985C7.42485 2.09974 7.93318 2.19141 8.42568 2.35891H8.47485C8.50818 2.37474 8.53318 2.39224 8.54985 2.40808C8.73401 2.46724 8.90818 2.53391 9.07485 2.62558L9.39151 2.76724C9.46803 2.80805 9.55392 2.87041 9.62815 2.9243C9.67518 2.95845 9.71753 2.9892 9.74985 3.00891C9.76344 3.01693 9.77726 3.025 9.7912 3.03313C9.86265 3.07484 9.93708 3.11829 9.99985 3.16641C10.9257 2.45891 12.0498 2.07558 13.2082 2.08391ZM15.4249 8.08391C15.7665 8.07475 16.0582 7.80058 16.0832 7.44975V7.35058C16.1082 6.18308 15.4007 5.12558 14.3249 4.71725C13.9832 4.59975 13.6082 4.78391 13.4832 5.13391C13.3665 5.48391 13.5499 5.86725 13.8999 5.99141C14.434 6.19141 14.7915 6.71725 14.7915 7.29975V7.32558C14.7757 7.51641 14.8332 7.70058 14.9499 7.84225C15.0665 7.98391 15.2415 8.06641 15.4249 8.08391Z" fill="#B6B9BC"/>
</svg>
