<svg width="18" height="18" viewBox="0 0 18 18" fill="none" xmlns="http://www.w3.org/2000/svg">
<path d="M16.8628 1.15165C16.446 0.723833 15.8291 0.564449 15.2538 0.732222L1.84 4.63294C1.23309 4.80155 0.802911 5.28557 0.68703 5.90046C0.568648 6.52625 0.982151 7.32066 1.52237 7.65285L5.71659 10.2307C6.14677 10.4949 6.70199 10.4286 7.05797 10.0696L11.8608 5.23692C12.1025 4.98526 12.5027 4.98526 12.7445 5.23692C12.9862 5.48019 12.9862 5.87446 12.7445 6.12612L7.93333 10.9597C7.57652 11.3178 7.50982 11.8757 7.77243 12.3085L10.3351 16.5448C10.6353 17.0481 11.1522 17.3333 11.719 17.3333C11.7857 17.3333 11.8608 17.3333 11.9275 17.3249C12.5777 17.2411 13.0946 16.7965 13.2864 16.1673L17.263 2.77066C17.4381 2.20023 17.2797 1.57947 16.8628 1.15165Z" fill="#B6B9BC"/>
</svg>
