<svg width="23" height="24" viewBox="0 0 23 24" fill="none" xmlns="http://www.w3.org/2000/svg">
<path fill-rule="evenodd" clip-rule="evenodd" d="M8.11311 5.23624C7.89933 5.53752 7.92389 5.96727 8.19396 6.24C8.48146 6.54 8.95105 6.54 9.23855 6.24L10.7623 4.64V8.78H12.2381V4.64L13.7619 6.24L13.8445 6.31438C14.1333 6.53752 14.5451 6.51273 14.8065 6.24C14.9502 6.09 15.0269 5.89 15.0269 5.69C15.0269 5.5 14.9502 5.3 14.8065 5.15L12.0177 2.23L11.9308 2.14848C11.8069 2.0512 11.6535 2 11.5002 2C11.299 2 11.1169 2.08 10.9731 2.23L8.18438 5.15L8.11311 5.23624ZM5.97155 8.78512C3.71635 8.89627 1.91669 10.8758 1.91669 13.2875V18.2526L1.92132 18.4651C2.02603 20.8599 3.89113 22.7802 6.18127 22.7802H16.8284L17.0285 22.7753C19.2837 22.6641 21.0834 20.6843 21.0834 18.2628V13.3078L21.0787 13.0945C20.9735 10.6909 19.0996 8.7802 16.8188 8.7802H12.2379V14.8849L12.2311 14.9922C12.1816 15.3776 11.869 15.6683 11.5 15.6683C11.0879 15.6683 10.7621 15.3224 10.7621 14.8849V8.7802H6.17169L5.97155 8.78512Z" fill="#616161"/>
</svg>
