<svg width="20" height="20" viewBox="0 0 20 20" fill="none" xmlns="http://www.w3.org/2000/svg">
<path d="M7.81244 8.125C8.33021 8.125 8.74994 7.70527 8.74994 7.1875C8.74994 6.66973 8.33021 6.25 7.81244 6.25C7.29467 6.25 6.87494 6.66973 6.87494 7.1875C6.87494 7.70527 7.29467 8.125 7.81244 8.125Z" fill="white"/>
<path d="M16.25 2.49998H3.75002C3.41861 2.50036 3.10089 2.63217 2.86655 2.86651C2.63221 3.10085 2.5004 3.41857 2.50002 3.74998V13.748L2.49994 13.7503L2.50002 16.25C2.5004 16.5814 2.63221 16.8991 2.86655 17.1334C3.10089 17.3678 3.41861 17.4996 3.75002 17.5H16.25C16.5814 17.4996 16.8991 17.3678 17.1335 17.1334C17.3678 16.8991 17.4996 16.5814 17.5 16.25V3.74998C17.4996 3.41857 17.3678 3.10085 17.1335 2.86651C16.8991 2.63217 16.5814 2.50036 16.25 2.49998ZM14.0089 8.74998C13.7743 8.51591 13.4564 8.38445 13.125 8.38445C12.7936 8.38445 12.4757 8.51591 12.2411 8.74998L8.75002 12.2411L7.13389 10.625C6.89924 10.391 6.58138 10.2595 6.24998 10.2595C5.91859 10.2595 5.60072 10.391 5.36608 10.625L3.75002 12.241V3.74998H16.25L16.2505 10.9916L14.0089 8.74998Z" fill="white"/>
</svg>
