<svg width="24" height="24" viewBox="0 0 24 24" fill="none" xmlns="http://www.w3.org/2000/svg">
<path d="M22.0001 -6.10352e-05H2.00006C1.46981 0.000545387 0.961457 0.211454 0.586516 0.586395C0.211575 0.961337 0.000666266 1.46969 5.98431e-05 1.99994V17.9967L-6.48499e-05 18.0005L5.98431e-05 21.9999C0.000666266 22.5302 0.211575 23.0385 0.586516 23.4135C0.961457 23.7884 1.46981 23.9993 2.00006 23.9999H22.0001C22.5303 23.9993 23.0387 23.7884 23.4136 23.4135C23.7885 23.0385 23.9995 22.5302 24.0001 21.9999V1.99994C23.9995 1.46969 23.7885 0.961337 23.4136 0.586396C23.0387 0.211454 22.5303 0.000545718 22.0001 -6.10352e-05ZM18.4142 9.99994C18.0389 9.62543 17.5303 9.4151 17 9.4151C16.4697 9.4151 15.9611 9.62543 15.5858 9.99994L10.0001 15.5858L7.41425 12.9999C7.03882 12.6255 6.53023 12.4152 6 12.4152C5.46977 12.4152 4.96118 12.6255 4.58576 12.9999L2.00006 15.5856V1.99994H22.0001L22.0008 13.5865L18.4142 9.99994Z" fill="white"/>
</svg>
